<svg width="26" height="26" viewBox="0 0 26 26" fill="none" xmlns="http://www.w3.org/2000/svg">
<path d="M15.9376 13L24.896 4.06248C25.2882 3.67018 25.5086 3.13811 25.5086 2.58331C25.5086 2.02852 25.2882 1.49645 24.896 1.10415C24.5037 0.711847 23.9716 0.491455 23.4168 0.491455C22.862 0.491455 22.3299 0.711847 21.9376 1.10415L13.0001 10.0625L4.06262 1.10415C3.67032 0.711847 3.13825 0.491455 2.58345 0.491455C2.02866 0.491455 1.49658 0.711847 1.10428 1.10415C0.711984 1.49645 0.491593 2.02852 0.491593 2.58331C0.491593 3.13811 0.711984 3.67018 1.10428 4.06248L10.0626 13L1.10428 21.9375C0.909016 22.1312 0.754028 22.3616 0.64826 22.6154C0.542492 22.8693 0.488037 23.1416 0.488037 23.4166C0.488037 23.6917 0.542492 23.964 0.64826 24.2178C0.754028 24.4717 0.909016 24.7021 1.10428 24.8958C1.29796 25.0911 1.52838 25.2461 1.78225 25.3518C2.03612 25.4576 2.30843 25.5121 2.58345 25.5121C2.85848 25.5121 3.13078 25.4576 3.38465 25.3518C3.63853 25.2461 3.86894 25.0911 4.06262 24.8958L13.0001 15.9375L21.9376 24.8958C22.1313 25.0911 22.3617 25.2461 22.6156 25.3518C22.8695 25.4576 23.1418 25.5121 23.4168 25.5121C23.6918 25.5121 23.9641 25.4576 24.218 25.3518C24.4719 25.2461 24.7023 25.0911 24.896 24.8958C25.0912 24.7021 25.2462 24.4717 25.352 24.2178C25.4577 23.964 25.5122 23.6917 25.5122 23.4166C25.5122 23.1416 25.4577 22.8693 25.352 22.6154C25.2462 22.3616 25.0912 22.1312 24.896 21.9375L15.9376 13Z" fill="#231F20" fill-opacity="0.5"/>
</svg>
