<?xml version="1.0" encoding="utf-8"?>
<!-- Generator: Adobe Illustrator 27.3.1, SVG Export Plug-In . SVG Version: 6.00 Build 0)  -->
<svg version="1.1" id="_Слой_1" xmlns="http://www.w3.org/2000/svg" xmlns:xlink="http://www.w3.org/1999/xlink" x="0px"
	 y="0px" viewBox="0 0 823.5 796.9" style="enable-background:new 0 0 823.5 796.9;" xml:space="preserve">
<style type="text/css">
	.st0{fill:#FFFFFF;}
</style>
<path class="st0" d="M723.9,796.9H99.6c-55,0-99.6-44.6-99.6-99.6V99.6C0,44.6,44.6,0,99.6,0h624.2c55,0,99.6,44.6,99.6,99.6v597.6
	C823.5,752.3,778.9,796.9,723.9,796.9z"/>
<path d="M407.3,93.8c-166.7,0-301.8,135.7-301.8,303.1S240.7,700,407.3,700s301.8-135.7,301.8-303.1S574,93.8,407.3,93.8z
	 M409.2,634.8c-132.1,0-239.2-107.1-239.2-239.2s107.1-239.2,239.2-239.2s239.2,107.2,239.2,239.2S541.4,634.8,409.2,634.8
	L409.2,634.8z"/>
<g>
	<path d="M378.9,315.2h191.8c-26.7-52.3-78.8-89.8-140.1-95.8L378.9,315.2L378.9,315.2z"/>
	<path d="M327.5,383.7l15.4-27.2l74.5-137.8c-1.4,0-2.8-0.1-4.3-0.1c-57.9,0-109.3,27.8-141.5,70.8L327.5,383.7L327.5,383.7z"/>
	<path d="M590.2,395.6c0-24.3-4.9-47.3-13.8-68.4H461.9l23.4,39.8l79.3,120.2C580.9,460.6,590.2,429.2,590.2,395.6L590.2,395.6z"/>
	<path d="M494.9,403.2l-25.3,44.9l-67.2,124.2c3.6,0.3,7.2,0.3,10.7,0.3c59.5,0,112.2-29.4,144.3-74.6L494.9,403.2L494.9,403.2z"/>
	<path d="M358.7,460.2l-94.8-160c-17.7,27.5-27.9,60.3-27.9,95.4c0,22.7,4.3,44.4,12.1,64.3L358.7,460.2L358.7,460.2z"/>
	<path d="M442.7,472.2H253.2c25.3,52.7,75.8,90.9,136,98.9L442.7,472.2L442.7,472.2z"/>
</g>
</svg>
