<?xml version="1.0" encoding="utf-8"?>
<!-- Generator: Adobe Illustrator 27.3.1, SVG Export Plug-In . SVG Version: 6.00 Build 0)  -->
<svg version="1.1" id="Слой_1" xmlns="http://www.w3.org/2000/svg" xmlns:xlink="http://www.w3.org/1999/xlink" x="0px" y="0px"
	 viewBox="0 0 400 400" style="enable-background:new 0 0 400 400;" xml:space="preserve">
<style type="text/css">
	.st0{fill:#FFFFFF;}
</style>
<g id="Layer_2" transform="matrix(6.25 0 0 6.25 200 200)">
	<path class="st0" d="M-31.9,0.1c0-17.6,14.3-31.9,31.9-31.9S32-17.6,32,0.1S17.7,32,0,32S-31.9,17.7-31.9,0.1z M27.7,0.1
		c0-15.3-12.4-27.7-27.7-27.7S-27.6-15.2-27.6,0.1S-15.2,27.7,0,27.7S27.7,15.4,27.7,0.1z"/>
</g>
<g id="Layer_2_00000027589709238589051740000017570272681367336590_" transform="matrix(6.25 0 0 6.25 200.01 200)">
	<path class="st0" d="M-8.2,12L3.7,0.1L-8.2-11.8c-0.8-0.8-0.8-2.2,0-3l0,0c0.8-0.8,2.2-0.8,3,0L8.3-1.3c0.7,0.8,0.7,2,0,2.7
		L-5.2,15c-0.8,0.8-2.2,0.8-3,0l0,0C-9,14.1-9,12.8-8.2,12z"/>
</g>
</svg>
