<?xml version="1.0" encoding="utf-8"?>
<!-- Generator: Adobe Illustrator 27.3.1, SVG Export Plug-In . SVG Version: 6.00 Build 0)  -->
<svg version="1.1" id="Слой_1" xmlns="http://www.w3.org/2000/svg" xmlns:xlink="http://www.w3.org/1999/xlink" x="0px" y="0px"
	 viewBox="0 0 400 400" style="enable-background:new 0 0 400 400;" xml:space="preserve">
<style type="text/css">
	.st0{fill:#FFFFFF;}
</style>
<g id="Layer_2" transform="matrix(6.25 0 0 6.25 200 200)">
	<path class="st0" d="M32,0.1C32,17.7,17.7,32,0.1,32s-32-14.2-32-31.9s14.3-31.9,32-31.9S32-17.5,32,0.1z M-27.6,0.1
		c0,15.3,12.4,27.7,27.7,27.7S27.7,15.4,27.7,0.1S15.3-27.5,0.1-27.5S-27.6-15.2-27.6,0.1z"/>
</g>
<g id="Layer_2_00000027589709238589051740000017570272681367336590_" transform="matrix(6.25 0 0 6.25 200.01 200)">
	<path class="st0" d="M8.3-11.8L-3.6,0.1L8.3,12c0.8,0.8,0.8,2.2,0,3l0,0c-0.8,0.8-2.2,0.8-3,0L-8.2,1.5c-0.7-0.8-0.7-2,0-2.7
		L5.3-14.8c0.8-0.8,2.2-0.8,3,0l0,0C9.1-13.9,9.1-12.6,8.3-11.8z"/>
</g>
</svg>
