<?xml version="1.0" encoding="utf-8"?>
<!-- Generator: Adobe Illustrator 27.3.1, SVG Export Plug-In . SVG Version: 6.00 Build 0)  -->
<svg version="1.1" id="Слой_1" xmlns="http://www.w3.org/2000/svg" xmlns:xlink="http://www.w3.org/1999/xlink" x="0px" y="0px"
	 viewBox="0 0 400 400" style="enable-background:new 0 0 400 400;" xml:space="preserve">
<style type="text/css">
	.st0{fill:#FFFFFF;}
</style>
<g transform="matrix(11.43 0 0 11.43 200 200)">
	<path class="st0" d="M0.4-11l0.8-0.8c-0.5-0.5-1.2-0.5-1.7,0L0.4-11z M0.4,1.6l-0.8,0.8c0.5,0.5,1.2,0.5,1.7,0L0.4,1.6z M-3.6-8.7
		C-4-8.3-4-7.5-3.6-7c0.5,0.5,1.2,0.5,1.7,0L-3.6-8.7z M2.8-7C3.2-6.6,4-6.6,4.4-7c0.5-0.5,0.5-1.2,0-1.7L2.8-7z M-1.9-2.4
		c-0.5-0.5-1.2-0.5-1.7,0C-4-2-4-1.2-3.6-0.7L-1.9-2.4z M4.4-0.7c0.5-0.5,0.5-1.2,0-1.7s-1.2-0.5-1.7,0L4.4-0.7z M-13.4-3.2v6.3h2.4
		v-6.3H-13.4z M14.2,3.2v-6.3h-2.4v6.3H14.2z M-0.7-11V1.6h2.4V-11H-0.7z M-0.4-11.9l-3.2,3.2L-1.9-7l3.2-3.2L-0.4-11.9z M-0.4-10.2
		L2.8-7l1.7-1.7l-3.2-3.2L-0.4-10.2z M1.3,0.7l-3.2-3.2l-1.7,1.7l3.2,3.2L1.3,0.7z M1.3,2.4l3.2-3.2L2.8-2.4l-3.2,3.2L1.3,2.4z
		 M14.2-3.2C14.2-10.8,8.1-17,0.4-17v2.4c6.3,0,11.4,5.1,11.4,11.4H14.2z M0.4,17c7.6,0,13.8-6.2,13.8-13.8h-2.4
		c0,6.3-5.1,11.4-11.4,11.4V17z M-13.4,3.2c0,7.6,6.2,13.8,13.8,13.8v-2.4C-5.9,14.6-11,9.5-11,3.2H-13.4z M-11-3.2
		c0-6.3,5.1-11.4,11.4-11.4V-17c-7.6,0-13.8,6.2-13.8,13.8H-11z"/>
</g>
</svg>
